<svg xmlns="http://www.w3.org/2000/svg" width="110" height="108" viewBox="0 0 110 108">
    <defs>
        <linearGradient id="a" x1="50.391%" x2="47.937%" y1="50%" y2="144.046%">
            <stop offset="0%" stop-color="#1B1159"/>
            <stop offset="100%" stop-color="#35477C"/>
        </linearGradient>
        <linearGradient id="b" x1="98.926%" x2="25.842%" y1="-5.9%" y2="70.885%">
            <stop offset="0%" stop-color="#1B1159"/>
            <stop offset="100%" stop-color="#35477C"/>
        </linearGradient>
        <linearGradient id="c" x1="33.185%" x2="52.52%" y1="124.206%" y2="30.989%">
            <stop offset="0%" stop-color="#693E86"/>
            <stop offset="100%" stop-color="#8950AF"/>
        </linearGradient>
        <linearGradient id="d" x1="50%" x2="-12.221%" y1="20.006%" y2="41.266%">
            <stop offset="0%" stop-color="#8950AF"/>
            <stop offset="100%" stop-color="#693E86"/>
        </linearGradient>
        <linearGradient id="e" x1="8.424%" x2="101.172%" y1="80.364%" y2="34.026%">
            <stop offset="0%" stop-color="#949DA9"/>
            <stop offset="100%" stop-color="#B2B9C7"/>
        </linearGradient>
        <linearGradient id="f" x1="43.782%" x2="51.965%" y1="46.909%" y2="54.362%">
            <stop offset="0%" stop-color="#EF394E"/>
            <stop offset="100%" stop-color="#F66D77"/>
        </linearGradient>
        <linearGradient id="g" x1="46.951%" x2="72.153%" y1="87.681%" y2="48.45%">
            <stop offset="0%" stop-color="#F66D77"/>
            <stop offset="100%" stop-color="#EF394E"/>
        </linearGradient>
        <linearGradient id="h" x1="60.383%" x2="64.999%" y1="27.409%" y2="76.395%">
            <stop offset="0%" stop-color="#F66D77"/>
            <stop offset="100%" stop-color="#EF394E"/>
        </linearGradient>
        <linearGradient id="i" x1="-11.244%" x2="116.554%" y1="42.513%" y2="78.668%">
            <stop offset="0%" stop-color="#F66D77"/>
            <stop offset="100%" stop-color="#EF394E"/>
        </linearGradient>
        <linearGradient id="j" x1="-.936%" x2="170.543%" y1="51.464%" y2="49.833%">
            <stop offset="0%" stop-color="#B2B9C7"/>
            <stop offset="100%" stop-color="#949DA9"/>
        </linearGradient>
    </defs>
    <g fill="none" fill-rule="nonzero">
        <path fill="#D8F1F7" d="M13.965 77h19.482L36 107H7z"/>
        <path fill="#BBE0EA" d="M14.736 77h5.796L24 107H8z"/>
        <path fill="#B28B67" d="M30 98.685c2.273-7.449 4.136-12.708 5.59-15.776 2.491-5.254 4.826-9.753 5.809-11.338 2.343-3.78 7.318.17 6.514 2.359-1.217 3.313-6.224 12.003-15.019 26.07L30 98.685z"/>
        <path fill="#B28B67" d="M43.352 106.647c-.416-9.469-.463-15.908-.141-19.317.553-5.838 1.223-10.907 1.615-12.747.934-4.389 7.177-2.352 7.174 0-.005 3.56-1.717 14.248-5.137 32.064-.262 1.59-3.347 2.006-3.51 0z"/>
        <path fill="url(#a)" d="M34.793 98.657l1.125-26.421c.915-4.356 8.662-2.335 8.659 0-.008 5.298-3.045 24.837-3.048 26.415l-6.736.006z" transform="rotate(20 39.685 84.164)"/>
        <path fill="#1B1159" d="M28 101.551L30.284 97l3.991 1.911c1.537 2.546 3.502 5.03 5.893 7.452l-.392.886-7.22-3.586-2.708-1.743-.196.443-1.652-.812zm16.231 6.347l.054-4.994h4.585c2.446 1.665 5.49 3.046 9.13 4.145V108h-8.638l-2.675-.577v.475h-2.456z"/>
        <path fill="url(#b)" d="M53 75.18c0 6.695-3.472 25.34-3.474 26.815L42.85 102c1.223-15.954 1.693-24.006 1.408-24.156-.426-.225-17.474 1.744-22.587 1.744C14.298 79.588 11.248 74.825 11 66h14.606c2.974.326 18.485 3.532 24.246 4.634C52.32 71.105 53 73.336 53 75.18z"/>
        <path fill="#B28B67" d="M28.515 28.765c1.088 2.785.247 9.457-1.554 9.738-.718.112-2.161-.51-3.58-1.628L23.618 44 18 43.39l2.89-9.194c-.944-1.438-1.51-3.136-1.203-4.936.883-5.187 7.74-3.28 8.828-.495z"/>
        <path fill="#3D2216" d="M30.98 25.321c-.074-.43-.351-.82-.764-.971a1.12 1.12 0 0 0-.312-.065c-.039-.002-.05.007-.065-.021-.011-.022-.006-.07-.01-.094a1.768 1.768 0 0 0-.041-.223 1.771 1.771 0 0 0-.352-.673 2.105 2.105 0 0 0-1.2-.74 1.827 1.827 0 0 0-.771.025c-.131.03-.26.072-.386.12-.038.015-.164.092-.199.083-.04-.011-.11-.12-.139-.149-.368-.353-.85-.528-1.35-.578-.564-.055-1.11-.084-1.616.215a3.177 3.177 0 0 0-.548.416c-.048.048-.043.065-.098.023a1.166 1.166 0 0 0-.734-.251 1.664 1.664 0 0 0-.468.082c-.052.016-.175.09-.227.085-.053-.005-.157-.096-.209-.122a1.778 1.778 0 0 0-.899-.18c-.323.02-.639.11-.927.26a1.216 1.216 0 0 0-.361.27c-.045.05-.086.103-.135.149-.029.027-.083.052-.1.087.01-.021-.328-.196-.36-.208a.922.922 0 0 0-.533-.036c-.338.075-.643.289-.9.515a2.413 2.413 0 0 0-.493.6c-.021.035-.037.08-.063.11-.034.04-.054.039-.108.052a1.639 1.639 0 0 0-.745.399c-.21.2-.36.457-.44.736-.005.016-.014.085-.025.094-.015.01-.068 0-.088 0a1.717 1.717 0 0 0-.595.11c-.48.18-.85.575-1.06 1.04a2.356 2.356 0 0 0-.13 1.587c.024.083.054.165.092.243.023.048.032.05.009.095-.025.05-.068.098-.097.147-.095.16-.168.333-.222.512-.087.293-.148.604-.124.911.01.143.042.284.097.417.043.102.1.197.171.283.014.017.032.032.043.05.028.045.038.011.015.07-.031.082-.092.16-.132.24a4.147 4.147 0 0 0-.302.77c-.092.345-.121.718.009 1.056.082.217.235.4.433.52.032.02.076.032.088.068.014.038-.02.108-.03.148-.087.35-.15.721-.083 1.08.065.334.24.635.499.854.494.42 1.214.475 1.804.243.154-.06.3-.14.433-.239.266.456.905.51 1.37.437.58-.09 1.075-.44 1.39-.935.311.478 1.075.414 1.372-.038.073-.11.122-.235.154-.364.016-.067.017-.137.031-.204.018-.086.084-.164.126-.245a1.43 1.43 0 0 0 .158-.496c.011-.092.008-.183.01-.275 0-.083.03-.157.052-.236-.148.008-.32-.05-.451-.107-.13-.056-.244-.179-.327-.29-.195-.255-.297-.575-.357-.89-.131-.688.035-1.48.736-1.777.326-.138 1.25-.04 1.61.083.377.13.724 1.04.737 1.124.008.051-.005.113.037.151.093.085.27-.026.352-.081a1.35 1.35 0 0 0 .338-.37 5.02 5.02 0 0 0 .514-.97c.104-.262.181-.535.307-.789.125-.251.305-.469.56-.592.278-.134.587-.187.884-.258.295-.07.587-.164.83-.354.053-.042.105-.087.15-.138.035-.04.075-.12.124-.143.078-.035.173.088.231.135.29.233.521.54.698.867.177.326.317.636.42.99.077.262.108.59.267.816.071.1.667.22.87.16.203-.06.443-.245.521-.37a.66.66 0 0 0 .1-.42c-.008-.089-.034-.173-.044-.26-.008-.072-.016-.14-.043-.21a.5.5 0 0 0-.282-.282c.153-.114.282-.258.38-.422.102-.172.195-.383.235-.579a.735.735 0 0 0-.047-.475c-.075-.154-.227-.266-.356-.37a2.58 2.58 0 0 0 .608-.545c.337-.412.576-.95.483-1.493z"/>
        <path fill="#B28B67" d="M33.076 52l9.557 2.685c2.23-.232 4.18-.198 5.848.103.432.173 1.047.626-.32 1.04-1.367.415-2.787.913-2.795 1.448-.008.535 1.004.775.87 1.545-.09.513-1.65-.076-4.682-1.768L33 56.807 33.076 52z"/>
        <path fill="url(#c)" d="M22.96 36.806l3.875.29c1.506 12.7 2.943 14.601 11.566 19.913l-2.458 7.66C18.153 60.314 23.62 48.354 22.96 36.806z" transform="rotate(-19 30.53 50.738)"/>
        <path fill="url(#d)" d="M11 69c4.31-.83 16.36.165 17.26-1.433 2.98-5.501-3.935-19.221-5.032-28.301L19.264 39c-.494.063-8.049 4.442-8.264 30z"/>
        <path fill="#B28B67" d="M6.456 33.78L11 34c-2.323-9.354-3.582-14.318-3.776-14.893-.436-1.294.73-3.168 1.238-4.182-1.447-.752-1.42 1.754-3.243.772-1.665-.897-2.887-2.428-4.924-1.295-.25.14-.546.699.072 1.18 1.541 1.199 3.744 3.271 4.022 3.93.379.898 1.068 5.654 2.067 14.268z"/>
        <path fill="#8950AF" d="M20.668 55C12.958 50.54 7.068 39.982 3 23.325L11.275 22C12.982 25.859 16.557 36.522 22 53.991L20.668 55z"/>
        <path fill="#FFDE50" d="M47.674 51.454c0 3.012-2.39 5.454-5.337 5.454a5.27 5.27 0 0 1-3.928-1.762A5.497 5.497 0 0 1 37 51.454C37 48.442 39.39 46 42.337 46a5.248 5.248 0 0 1 3.613 1.44 5.493 5.493 0 0 1 1.724 4.014z"/>
        <path fill="#FFEA94" d="M46.04 47.531l-7.542 7.706a5.471 5.471 0 0 1-.676-.931l7.306-7.465c.327.196.632.428.912.69zm1.266 1.93l-6.92 7.071a5.302 5.302 0 0 1-1.352-.793l7.496-7.66c.323.418.584.884.776 1.381z"/>
        <path fill="#FAA300" d="M46.484 51.454c-.004 2.327-1.844 4.215-4.121 4.23-2.277.014-4.14-1.85-4.173-4.178v-.052a4.258 4.258 0 0 1 2.061-3.707 4.07 4.07 0 0 1 4.172 0 4.257 4.257 0 0 1 2.061 3.707z"/>
        <path fill="#FFBD00" d="M45.32 48.434l-5.934 6.064a4.304 4.304 0 0 1-.936-1.458 4.35 4.35 0 0 1-.292-1.52v-.054c0-1.734 1.022-3.297 2.59-3.96a4.131 4.131 0 0 1 4.572.928z"/>
        <path fill="#FFEA94" d="M42.422 50.516a.978.978 0 0 1 .967-.838h1.799v.79H43.61c-.223 0-.413.17-.413.37v1.213c0 .21.205.414.413.414h1.578v.788h-1.799c-.5 0-.895-.349-.967-.826a.955.955 0 0 1-.958.826H39.68v-.787h1.564c.207 0 .41-.206.41-.415v-1.213c0-.2-.188-.37-.41-.37H39.68v-.79h1.784a.972.972 0 0 1 .96.838z"/>
        <path fill="#FFDE50" d="M43.967 54.412c0 2.989-2.455 5.412-5.483 5.412a5.503 5.503 0 0 1-4.036-1.748A5.35 5.35 0 0 1 33 54.412C33 51.424 35.455 49 38.484 49c1.38 0 2.709.51 3.712 1.43a5.364 5.364 0 0 1 1.771 3.982z"/>
        <path fill="#FFEA94" d="M42.287 50.52l-7.748 7.646a5.44 5.44 0 0 1-.695-.924l7.507-7.408c.337.196.65.426.937.686zm1.302 1.913l-7.11 7.018c-.501-.194-.969-.46-1.389-.787l7.701-7.601c.334.417.602.879.798 1.37z"/>
        <path fill="#FAA300" d="M42.745 54.412c-.005 2.31-1.896 4.182-4.235 4.197-2.34.014-4.253-1.836-4.287-4.145v-.052a4.195 4.195 0 0 1 2.117-3.678 4.31 4.31 0 0 1 4.287 0 4.194 4.194 0 0 1 2.118 3.678z"/>
        <path fill="#FFBD00" d="M41.539 51.414l-6.097 6.017a4.258 4.258 0 0 1-.963-1.446 4.187 4.187 0 0 1-.3-1.51v-.052a4.255 4.255 0 0 1 2.661-3.93 4.353 4.353 0 0 1 4.699.921z"/>
        <path fill="#FFEA94" d="M38.571 53.481a.994.994 0 0 1 .994-.832h1.848v.785h-1.62c-.231 0-.426.169-.426.367v1.204c0 .207.21.411.425.411h1.62v.781h-1.847c-.514 0-.92-.346-.994-.82a.972.972 0 0 1-.985.82h-1.832v-.78h1.607c.212 0 .421-.205.421-.412V53.8c0-.199-.194-.367-.421-.367h-1.608v-.785h1.833a.988.988 0 0 1 .985.832z"/>
        <path fill="#FFDE50" d="M51.674 55.454c0 3.012-2.39 5.454-5.337 5.454a5.27 5.27 0 0 1-3.928-1.762A5.497 5.497 0 0 1 41 55.454C41 52.442 43.39 50 46.337 50a5.248 5.248 0 0 1 3.613 1.44 5.493 5.493 0 0 1 1.724 4.014z"/>
        <path fill="#FFEA94" d="M50.04 51.531l-7.542 7.706a5.471 5.471 0 0 1-.676-.931l7.306-7.465c.327.196.632.428.912.69zm1.266 1.93l-6.92 7.071a5.302 5.302 0 0 1-1.352-.793l7.496-7.66c.323.418.584.884.776 1.381z"/>
        <path fill="#FAA300" d="M50.484 55.454c-.004 2.327-1.844 4.215-4.121 4.23-2.277.014-4.14-1.85-4.173-4.178v-.052a4.258 4.258 0 0 1 2.061-3.707 4.07 4.07 0 0 1 4.172 0 4.257 4.257 0 0 1 2.061 3.707z"/>
        <path fill="#FFBD00" d="M49.317 52.434l-5.934 6.064a4.304 4.304 0 0 1-.937-1.458 4.35 4.35 0 0 1-.291-1.52v-.054c0-1.734 1.022-3.297 2.59-3.96a4.131 4.131 0 0 1 4.572.928z"/>
        <path fill="#FFEA94" d="M46.422 54.516a.978.978 0 0 1 .967-.838h1.799v.79H47.61c-.223 0-.413.17-.413.37v1.213c0 .21.205.414.413.414h1.578v.788h-1.799c-.5 0-.895-.349-.967-.826a.955.955 0 0 1-.958.826H43.68v-.787h1.564c.207 0 .41-.206.41-.415v-1.213c0-.2-.188-.37-.41-.37H43.68v-.79h1.784a.972.972 0 0 1 .96.838z"/>
        <path fill="#FFDE50" d="M46.674 58.454c0 3.012-2.39 5.454-5.337 5.454a5.27 5.27 0 0 1-3.928-1.762A5.497 5.497 0 0 1 36 58.454C36 55.442 38.39 53 41.337 53a5.248 5.248 0 0 1 3.613 1.44 5.493 5.493 0 0 1 1.724 4.014z"/>
        <path fill="#FFEA94" d="M45.04 54.531l-7.542 7.706a5.471 5.471 0 0 1-.676-.931l7.306-7.465c.327.196.632.428.912.69zm1.266 1.93l-6.92 7.071a5.302 5.302 0 0 1-1.352-.793l7.496-7.66c.323.418.584.884.776 1.381z"/>
        <path fill="#FAA300" d="M45.484 58.454c-.004 2.327-1.844 4.215-4.121 4.23-2.277.014-4.14-1.85-4.173-4.178v-.052a4.258 4.258 0 0 1 2.061-3.707 4.07 4.07 0 0 1 4.172 0 4.257 4.257 0 0 1 2.061 3.707z"/>
        <path fill="#FFBD00" d="M44.298 55.424l-5.934 6.064a4.304 4.304 0 0 1-.937-1.458 4.35 4.35 0 0 1-.292-1.521v-.053c0-1.734 1.023-3.297 2.59-3.961a4.13 4.13 0 0 1 4.573.929z"/>
        <path fill="#FFEA94" d="M41.422 57.516a.978.978 0 0 1 .967-.838h1.799v.79H42.61c-.223 0-.413.17-.413.37v1.213c0 .21.205.414.413.414h1.578v.788h-1.799c-.5 0-.895-.349-.967-.826a.955.955 0 0 1-.958.826H38.68v-.787h1.564c.207 0 .41-.206.41-.415v-1.213c0-.2-.188-.37-.41-.37H38.68v-.79h1.784a.972.972 0 0 1 .96.838z"/>
        <path fill="#FFDE50" d="M41.728 58.482c0 3.027-2.402 5.481-5.364 5.481a5.297 5.297 0 0 1-3.948-1.77A5.524 5.524 0 0 1 31 58.482C31 55.454 33.402 53 36.364 53a5.275 5.275 0 0 1 3.632 1.448 5.521 5.521 0 0 1 1.732 4.034z"/>
        <path fill="#FFEA94" d="M40.085 54.539l-7.58 7.745a5.499 5.499 0 0 1-.679-.936l7.343-7.503c.33.198.636.431.916.694zm1.273 1.939l-6.955 7.108a5.33 5.33 0 0 1-1.358-.798l7.533-7.699c.325.42.588.889.78 1.389z"/>
        <path fill="#FAA300" d="M40.532 58.482c-.005 2.338-1.854 4.236-4.142 4.25-2.29.015-4.16-1.86-4.194-4.198v-.052a4.279 4.279 0 0 1 2.072-3.726 4.091 4.091 0 0 1 4.193 0 4.28 4.28 0 0 1 2.071 3.726z"/>
        <path fill="#FFBD00" d="M39.326 55.441l-5.963 6.095a4.326 4.326 0 0 1-.942-1.465 4.372 4.372 0 0 1-.293-1.53v-.052c0-1.743 1.028-3.314 2.603-3.981a4.151 4.151 0 0 1 4.595.933z"/>
        <path fill="#FFEA94" d="M36.45 57.539a.982.982 0 0 1 .972-.843h1.807v.795h-1.585c-.225 0-.416.171-.416.372v1.219c0 .21.206.416.416.416h1.585v.792h-1.807c-.503 0-.9-.351-.972-.83a.96.96 0 0 1-.964.83h-1.793v-.792h1.572c.208 0 .412-.206.412-.416v-1.22c0-.2-.189-.371-.411-.371h-1.573v-.795h1.793c.479-.004.889.354.964.843z"/>
        <path fill="url(#e)" d="M30.43 58.977c.735-.793 22.072-1.36 22.446-.66.553 1.031-.836 10.186-2.392 12.159-1.84.528-16.375.793-18.215.132-2.446-2.604-2.656-10.725-1.84-11.63z"/>
        <path fill="url(#f)" d="M82.515 100.295c-5.263-5.809-7.502-10.327-6.717-13.551 1.177-4.837 6.182-5.112 7.082-8.877.9-3.766-3.244-7.041-2.068-11.878 1.177-4.837 5.096-10.375 5.838-10.9l3.893-1.781c-4.044 6.3-6.253 10.938-6.625 13.913-.559 4.462 3.94 7.24 2.826 12.449-1.115 5.208-7.354 4.435-7.248 8.181.07 2.498 1.244 4.879 3.52 7.142l-.5 5.302z" transform="rotate(-82 83.094 76.801)"/>
        <path fill="url(#g)" d="M73.652 43.233c-5.922-3.825-8.702-7.057-8.34-9.698.544-3.96 6.068-3.958 6.848-7.8.782-3.843-4.766-4.306-4.006-9.162.76-4.857 4.243-5.466 5.004-8.226.507-1.84-1.526-5.153-6.1-9.94l3.215-.12c4.684 4.55 6.673 8.046 5.967 10.488-1.059 3.663-5.201 4.705-4.965 7.726.366 4.675 5.24 5.064 4.377 10.146-.863 5.083-7.236 3.481-7.148 7.304.059 2.548 1.614 4.417 4.664 5.604l.484 3.678z" opacity=".58" transform="scale(1 -1) rotate(-51 27.306 0)"/>
        <path fill="url(#h)" d="M77.447 99.157c-.8-1.346-1.515-2.38-2.148-3.102-1.607-1.91-3.383-2.605-5.326-2.084-2.916.78-2.554 3.36-2.345 4.139.21.78 1.111 2.629 3.918 2.963 1.872.222 4.001-.014 6.388-.71l-.487-1.206z" transform="rotate(15 72.713 97.479)"/>
        <path fill="url(#i)" d="M86.517 99.04c-1.174-1.907-2.077-3.22-2.709-3.943-1.58-1.806-3.188-2.49-4.825-2.051-2.455.658-3.613 2.473-3.335 4.739.279 2.266 2.064 2.79 4.578 2.94 1.676.099 3.936-.06 6.778-.48l-.487-1.206z" transform="scale(-1 1) rotate(15 0 -520.745)"/>
        <path fill="url(#j)" d="M67.18 102.091c.681-.898 20.558-1.505 20.77-.749.351 1.247-1.255 3.554-1.897 3.842-1.928.577-14.615 1.154-16.864.577-.963-.288-2.764-2.644-2.009-3.67z" transform="rotate(180 77.5 103.5)"/>
        <path fill="#E0E0E2" d="M51.17 25L48 23l4 .38z"/>
        <path fill="#9EE478" d="M74 38l-3 .125.288.731c.613-.233 1.364-.186 2.252.144l.46-1z"/>
        <path fill="#E0E0E2" d="M107 95l-4-.52 1.034-2.48z"/>
        <path fill="#9EE478" d="M94.877 75L95 79a56.68 56.68 0 0 0-2-3.16l1.877-.84z"/>
        <path fill="#FCD208" d="M52.706 39.042L51 42.023l1.269.42c.039-.807.583-1.478 1.634-2.013l-1.197-1.388zM92 52.33l-3.388-.364.137 1.343c.745-.292 1.573-.062 2.484.691L92 52.33zM60.82 13l-.22 3.205 1.918-.6L60.82 13z"/>
        <path fill="#FAA300" d="M78 53l-4-.404.429-1.43c.804.494 1.81.438 3.017-.166L78 53z"/>
        <path fill="#E0E0E2" d="M101 10.594l-2.23 1.992 1.794.917.436-2.909zM79.89 25.166L79.075 28a41.375 41.375 0 0 0-.8-2.71l1.615-.124zM48.342 1.798L46 3.665c.324-.818.639-1.707.945-2.665l1.397.798z"/>
        <path fill="#87D3E1" d="M97 24l-3 .88L95.29 26z"/>
        <path fill="#EF394E" d="M39.827 37L39 34.134 40.064 34c-.107.7.205 1.373.936 2.02l-1.173.98z"/>
        <path fill="#E0E0E2" d="M77.779 69L79 67c-.655.362-1.322.702-2 1.02l.779.98z"/>
        <path fill="#8950AF" d="M70.619 3L73 .785 72.026 0c-.278.732-.953 1.18-2.026 1.344L70.619 3z"/>
        <path fill="#E0E0E2" d="M68 80l1.108 4L71 83.097z"/>
        <path fill="#8950AF" d="M110 41l-4-.85.677-1.15c.735.518 1.768.6 3.098.244L110 41z"/>
        <path fill="#87D3E1" d="M44.154 10l1.13 2.804-1.113.232c.05-.713-.34-1.362-1.171-1.946L44.154 10zm14.202 44.75L60.328 57l.672-.95c-.644-.254-1.045-.895-1.204-1.923l-1.44.624z"/>
        <path fill="#EF394E" d="M102.771 61.808L106 63l-.725-2.992-2.504 1.8zM88 37.965L90.801 36l.546 1.183c-.8.123-1.415.72-1.842 1.793L88 37.965z"/>
    </g>
</svg>
