<svg xmlns="http://www.w3.org/2000/svg" width="40" height="40" viewBox="0 0 40 40">
    <path fill="#E0E0E2" d="M27.845 15.488l8.334 8.333-2.358 2.358-7.154-7.155-8.822 8.821c-.65.651-1.706.651-2.357 0l-3.821-3.821-5.488 5.488-2.358-2.357 6.667-6.667c.651-.65 1.706-.65 2.357 0l3.822 3.822 8.821-8.822c.651-.65 1.706-.65 2.357 0zM13.333 10c1.841 0 3.334 1.492 3.334 3.333 0 1.841-1.493 3.334-3.334 3.334-1.84 0-3.333-1.493-3.333-3.334C10 11.493 11.492 10 13.333 10zM10 6.667c-1.84 0-3.333 1.492-3.333 3.333v20c0 1.84 1.492 3.333 3.333 3.333h20c1.84 0 3.333-1.492 3.333-3.333V10c0-1.84-1.492-3.333-3.333-3.333H10zm0-3.334h20c3.682 0 6.667 2.985 6.667 6.667v20c0 3.682-2.985 6.667-6.667 6.667H10c-3.682 0-6.667-2.985-6.667-6.667V10c0-3.682 2.985-6.667 6.667-6.667z"/>
</svg>
