<svg xmlns="http://www.w3.org/2000/svg" xmlns:xlink="http://www.w3.org/1999/xlink" width="180" height="135" viewBox="0 0 180 135">
    <defs>
        <linearGradient id="a" x1="85.573%" x2="0%" y1="49.996%" y2="50.005%">
            <stop offset="0%" stop-color="#A1A3A8"/>
            <stop offset="100%" stop-color="#C1C3C7"/>
        </linearGradient>
        <filter id="b" width="104.1%" height="500%" x="-2.1%" y="-200%" filterUnits="objectBoundingBox">
            <feGaussianBlur in="SourceGraphic" stdDeviation=".6"/>
        </filter>
        <linearGradient id="c" x1="50%" x2="74.32%" y1="75.773%" y2="13.62%">
            <stop offset="0%" stop-color="#008EB2"/>
            <stop offset="59.327%" stop-color="#56C7DA"/>
            <stop offset="100%" stop-color="#87D3E1"/>
        </linearGradient>
        <linearGradient id="d" x1="129.866%" x2="43.355%" y1="57.162%" y2="57.162%">
            <stop offset="0%" stop-color="#115F73"/>
            <stop offset="100%" stop-color="#115F73" stop-opacity="0"/>
        </linearGradient>
        <linearGradient id="e" x1="50%" x2="50%" y1="19.621%" y2="100%">
            <stop offset="0%" stop-color="#C0C4CA"/>
            <stop offset="100%" stop-color="#676E79"/>
        </linearGradient>
        <linearGradient id="f" x1="51.423%" x2="48.501%" y1="13.771%" y2="92.414%">
            <stop offset="0%" stop-color="#DDDEE0"/>
            <stop offset="100%" stop-color="#CACCD0"/>
        </linearGradient>
        <linearGradient id="g" x1="50%" x2="74.32%" y1="80.781%" y2="6.55%">
            <stop offset="0%" stop-color="#EF394E"/>
            <stop offset="59.327%" stop-color="#EF4959"/>
            <stop offset="100%" stop-color="#FF848D"/>
        </linearGradient>
        <linearGradient id="h" x1="0%" x2="23.127%" y1="25.31%" y2="61.27%">
            <stop offset="0%" stop-color="#A1A3A8"/>
            <stop offset="100%" stop-color="#A1A3A8" stop-opacity="0"/>
        </linearGradient>
        <linearGradient id="i" x1="50%" x2="62.408%" y1="92.604%" y2="-10.138%">
            <stop offset="0%" stop-color="#0FABC6"/>
            <stop offset="59.327%" stop-color="#87D3E1"/>
            <stop offset="100%" stop-color="#B2EFFA"/>
        </linearGradient>
        <linearGradient id="k" x1="39.76%" y1="50%" y2="50%">
            <stop offset="0%" stop-color="#066D88"/>
            <stop offset="100%" stop-color="#008EB2"/>
        </linearGradient>
        <rect id="j" width="27" height="9" rx="3"/>
        <linearGradient id="m" x1="39.76%" y1="50%" y2="50%">
            <stop offset="2.402%" stop-color="#115F73"/>
            <stop offset="100%" stop-color="#007491"/>
        </linearGradient>
        <rect id="l" width="23.4" height="9" rx="3"/>
        <linearGradient id="n" x1="73.338%" x2="21.388%" y1="47.655%" y2="56.228%">
            <stop offset="0%" stop-color="#39AE00"/>
            <stop offset="100%" stop-color="#6BB927"/>
        </linearGradient>
        <linearGradient id="o" x1="56.524%" x2="43.759%" y1="5.221%" y2="92.414%">
            <stop offset="0%" stop-color="#CACCD0"/>
            <stop offset="48.641%" stop-color="#DCDDDF"/>
            <stop offset="100%" stop-color="#DDDEE0"/>
        </linearGradient>
        <linearGradient id="q" x1="100%" x2="0%" y1="23.274%" y2="23.274%">
            <stop offset="0%" stop-color="#FFF" stop-opacity="0"/>
            <stop offset="100%" stop-opacity=".109"/>
        </linearGradient>
        <path id="p" d="M80.1 78.3h18v44.1h-18z"/>
        <linearGradient id="r" x1="73.338%" x2="21.388%" y1="47.709%" y2="56.084%">
            <stop offset="0%" stop-color="#9DC44D"/>
            <stop offset="100%" stop-color="#6BB927"/>
        </linearGradient>
    </defs>
    <g fill="none" fill-rule="evenodd">
        <path fill="url(#a)" d="M118.8 122.4l-.677.9H31.5l29.106-.9z" filter="url(#b)"/>
        <path fill="url(#c)" d="M63.6 15.3h51c8.284 0 15 6.716 15 15v48h-81v-48c0-8.284 6.716-15 15-15z"/>
        <path fill="url(#d)" fill-opacity=".3" d="M68.4 27l8.1 21.15-20.25 22.5z"/>
        <g transform="translate(50.4 3.6)">
            <path fill="url(#e)" d="M22.5 0h6.3v45h-3.3a3 3 0 0 1-3-3V0z" transform="matrix(-1 0 0 1 51.3 0)"/>
            <path fill="url(#f)" d="M18 0h9v40.5a4.5 4.5 0 1 1-9 0V0z" transform="matrix(-1 0 0 1 45 0)"/>
            <path fill="url(#g)" d="M0 0h18v15.3H0l3.6-8.1z"/>
            <circle cx="22.5" cy="39.6" r="1.8" fill="#6A717C"/>
        </g>
        <path fill="url(#h)" d="M80.1 78.3h16.65L80.1 90z"/>
        <path fill="url(#i)" d="M99.6 15.3h15c8.284 0 15 6.716 15 15v48h-45v-48c0-8.284 6.716-15 15-15z"/>
        <g transform="translate(93.6 39.6)">
            <use fill="url(#k)" xlink:href="#j"/>
            <use fill="url(#m)" xlink:href="#l"/>
        </g>
        <path fill="url(#n)" d="M118.8 122.4H72.9c0-8.947 7.253-16.2 16.2-16.2 5.025 0 9.515 2.288 12.486 5.878a11.648 11.648 0 0 1 5.514-1.378c6.462 0 11.7 5.238 11.7 11.7z" transform="matrix(-1 0 0 1 191.7 0)"/>
        <g>
            <use fill="url(#o)" xlink:href="#p"/>
            <use fill="url(#q)" xlink:href="#p"/>
        </g>
        <path fill="url(#h)" d="M80.1 78.3h16.65L80.1 90z"/>
        <path fill="url(#r)" d="M101.7 122.4H63c0-7.456 6.115-13.5 13.659-13.5 4.236 0 8.022 1.906 10.528 4.898a9.913 9.913 0 0 1 4.648-1.148c5.448 0 9.865 4.365 9.865 9.75z"/>
    </g>
</svg>
