<svg width="176" height="62" viewBox="0 0 176 62" fill="none" xmlns="http://www.w3.org/2000/svg">
<path d="M0.00800014 38.336H17.48C18.2907 38.336 18.9733 38.0587 19.528 37.504C20.1253 36.9067 20.424 36.2027 20.424 35.392V5.504H29.576V35.904C29.576 38.08 29.0427 40.1067 27.976 41.984C26.9093 43.8187 25.4587 45.2907 23.624 46.4C21.7893 47.4667 19.7627 48 17.544 48H0.00800014V38.336ZM0.072 8L8.968 5.696L15.88 34.048L6.984 36.352L0.072 8ZM46.976 48C44.7573 48 42.7307 47.4667 40.896 46.4C39.0613 45.2907 37.6107 43.8187 36.544 41.984C35.4773 40.1067 34.944 38.08 34.944 35.904V4.864H44.16V35.328C44.16 36.1813 44.4373 36.9067 44.992 37.504C45.5467 38.0587 46.2293 38.336 47.04 38.336H50.56C50.9867 38.336 51.2 38.5493 51.2 38.976V47.36C51.2 47.7867 50.9867 48 50.56 48H46.976ZM49.9225 38.976C49.9225 38.5493 50.1358 38.336 50.5625 38.336H64.9625C66.1145 38.336 67.0958 37.952 67.9065 37.184C68.7172 36.416 69.1225 35.392 69.1225 34.112C69.1225 32.576 68.3972 31.36 66.9465 30.464L52.4825 20.928V13.952L65.2185 0.383999L71.5545 6.336L62.0185 16.256L72.6425 23.232C74.4345 24.384 75.8212 25.9413 76.8025 27.904C77.8265 29.824 78.3385 31.9573 78.3385 34.304C78.3385 36.7787 77.7198 39.0613 76.4825 41.152C75.2878 43.2427 73.6665 44.9067 71.6185 46.144C69.5705 47.3813 67.3092 48 64.8345 48H50.5625C50.1358 48 49.9225 47.7867 49.9225 47.36V38.976ZM95.2885 48C93.0698 48 91.0432 47.4667 89.2085 46.4C87.3738 45.2907 85.9232 43.8187 84.8565 41.984C83.7898 40.1067 83.2565 38.08 83.2565 35.904V4.864H92.4725V35.328C92.4725 36.1813 92.7498 36.9067 93.3045 37.504C93.8592 38.0587 94.5418 38.336 95.3525 38.336H98.8725C99.2992 38.336 99.5125 38.5493 99.5125 38.976V47.36C99.5125 47.7867 99.2992 48 98.8725 48H95.2885ZM98.235 38.976C98.235 38.5493 98.4483 38.336 98.875 38.336H103.035C103.888 38.336 104.592 38.0587 105.147 37.504C105.702 36.9067 105.979 36.1813 105.979 35.328V24.128H115.195V35.328C115.195 36.1813 115.472 36.9067 116.027 37.504C116.582 38.0587 117.286 38.336 118.139 38.336H122.299C122.726 38.336 122.939 38.5493 122.939 38.976V47.36C122.939 47.7867 122.726 48 122.299 48H118.139C114.982 48 112.464 46.9547 110.587 44.864C108.624 46.9547 106.107 48 103.035 48H98.875C98.4483 48 98.235 47.7867 98.235 47.36V38.976ZM100.731 10.368H108.923V18.56H100.731V10.368ZM112.251 10.368H120.507V18.56H112.251V10.368ZM122.312 48C121.886 48 121.672 47.7867 121.672 47.36V38.976C121.672 38.5493 121.886 38.336 122.312 38.336H136.713C137.865 38.336 138.846 37.952 139.657 37.184C140.467 36.416 140.873 35.392 140.873 34.112C140.873 32.576 140.147 31.36 138.697 30.464L124.233 20.928V13.952L136.969 0.383999L143.305 6.336L133.769 16.256L144.393 23.232C146.185 24.384 147.571 25.9413 148.553 27.904C149.577 29.824 150.089 31.9573 150.089 34.304C150.089 36.7787 149.47 39.0613 148.233 41.152C147.038 43.2427 145.417 44.9067 143.369 46.144C141.321 47.3813 139.059 48 136.585 48H122.312ZM153.033 48C149.79 48 147.251 46.8693 145.417 44.608C143.625 42.304 142.729 39.4027 142.729 35.904V34.304H150.089V35.328C150.089 36.1813 150.366 36.9067 150.921 37.504C151.475 38.0587 152.179 38.336 153.033 38.336H155.785C156.211 38.336 156.425 38.5493 156.425 38.976V47.36C156.425 47.7867 156.211 48 155.785 48H153.033ZM155.812 48C155.386 48 155.172 47.7867 155.172 47.36V38.976C155.172 38.5493 155.386 38.336 155.812 38.336H162.725C163.535 38.336 164.218 38.0373 164.773 37.44C165.37 36.8427 165.669 36.1387 165.669 35.328V22.208H174.821V35.904C174.821 38.08 174.287 40.1067 173.221 41.984C172.154 43.8187 170.703 45.2907 168.869 46.4C167.034 47.4667 165.007 48 162.789 48H155.812ZM155.877 53.504H164.069V61.696H155.877V53.504ZM167.397 53.504H175.653V61.696H167.397V53.504Z" fill="white"/>
</svg>
