<svg xmlns="http://www.w3.org/2000/svg" width="48" height="48" viewBox="0 0 48 48">
    <g fill="none" fill-rule="evenodd">
        <path fill="#000" d="M14 15.56C14 10.008 18.482 5.5 24 5.5s10 4.507 10 10.06c0 4.145-1.43 6.342-4.762 8.647l-.666.447-1.116.732c-2.981 1.974-4.206 3.481-4.206 6.175V36h1.5v-4.44c0-1.983.869-3.12 3.27-4.747l1.774-1.17c3.909-2.629 5.706-5.25 5.706-10.082C35.5 9.18 30.348 4 24 4S12.5 9.18 12.5 15.56H14z"/>
        <path fill="#F04D7D" d="M24.102 39.352c1.104 0 2 .896 2 2s-.896 2-2 2-2-.896-2-2 .896-2 2-2z"/>
    </g>
</svg>
